:SAMPLES-PER-SECOND 30
:FULLY-SPECIFIED
:DEGREES
510
root  -7.15269 38.9464 -0.1134 -6.29797 -81.8661 0.527222
RightUpLeg  7.13721 -14.0558 -20.9024
RightLeg  -0.469846 2.6355 -0.0621852
RightFoot  4.44013 -2.92666 21.1174
RightToes  7.56698e-010 0 -3.6325e-017
Spine  8.15327 -0.849279 2.18359
Spine1  -1.08774 -0.495866 -1.13002
HEad  -2.87511 -25.6683 7.82437
LeftShoulder1  2.43174 -5.5259 -20.5163
LeftArm  -0.410977 15.8239 -48.6196
LeftForeArm  2.3546 -11.8437 -11.6544
LeftHand  -0.66546 1.43183 19.4458
RightShoulder  1.13335 1.50924 15.9406
RightArm  -3.14948 -13.466 54.1907
RightForeArm  17.2159 10.1371 12.374
RightHand  -0.768831 0.295123 -15.7354
LeftUpLeg  3.20356 12.8746 18.1603
LeftLeg  4.72226 -24.1372 0.556899
LeftFoot  -4.86887 1.15214 -19.6929
LeftToes  -3.13779e-010 -2.47553e-011 -5.36621e-011
511
root  -7.1077 38.9447 -0.121094 -6.21729 -81.7109 0.42395
RightUpLeg  7.13066 -14.079 -20.9123
RightLeg  -0.419461 2.5128 -0.0245165
RightFoot  4.46839 -2.92778 21.0884
RightToes  7.56698e-010 0 -3.6325e-017
Spine  8.30448 -0.81338 2.29908
Spine1  -1.37119 -0.45068 -1.13529
HEad  -2.5556 -25.6232 7.25559
LeftShoulder1  2.45685 -5.54364 -20.7568
LeftArm  2.19421 15.4136 -48.9632
LeftForeArm  0.0678648 -13.4503 -10.9919
LeftHand  -0.687117 1.33068 19.5858
RightShoulder  1.13994 1.59719 15.6523
RightArm  -1.65744 -12.8997 54.759
RightForeArm  16.5497 10.9697 12.0826
RightHand  -0.775234 0.41359 -15.5512
LeftUpLeg  3.0683 12.8003 18.118
LeftLeg  4.75541 -24.2169 0.576237
LeftFoot  -4.83263 1.16093 -19.7392
LeftToes  -3.13779e-010 -2.47553e-011 -5.36621e-011
512
root  -7.06701 38.9432 -0.12826 -6.24683 -81.6171 0.413452
RightUpLeg  7.12153 -14.104 -20.9322
RightLeg  -0.362509 2.46068 0.0028462
RightFoot  4.47993 -2.93092 21.1011
RightToes  7.56698e-010 0 -3.6325e-017
Spine  8.5422 -0.821837 2.50171
Spine1  -1.75912 -0.405788 -1.38284
HEad  -2.16113 -25.5796 6.78282
LeftShoulder1  2.43923 -5.51486 -20.6404
LeftArm  4.88976 15.1942 -49.5409
LeftForeArm  -2.28199 -15.0044 -10.2421
LeftHand  -0.674705 1.40197 19.5694
RightShoulder  1.15449 1.67913 15.5713
RightArm  0.590769 -12.3384 55.131
RightForeArm  14.9628 11.9064 11.7867
RightHand  -0.782722 0.419384 -15.6846
LeftUpLeg  3.0063 12.7452 18.0818
LeftLeg  4.74478 -24.2535 0.607754
LeftFoot  -4.8083 1.1667 -19.7678
LeftToes  -3.13779e-010 -2.47553e-011 -5.36621e-011
513
root  -7.02844 38.9414 -0.139197 -6.21423 -81.5409 0.324341
RightUpLeg  7.12623 -14.0918 -20.9129
RightLeg  -0.319606 2.38613 -0.00647692
RightFoot  4.48807 -2.93358 21.1362
RightToes  7.56698e-010 0 -3.6325e-017
Spine  8.80905 -0.845379 2.71433
Spine1  -2.15146 -0.362156 -1.7053
HEad  -1.84106 -25.5605 6.4507
LeftShoulder1  2.42111 -5.53091 -20.3747
LeftArm  7.21337 15.0437 -50.1637
LeftForeArm  -4.17925 -16.2614 -9.55402
LeftHand  -0.674408 1.37227 19.4218
RightShoulder  1.16156 1.70232 15.6112
RightArm  3.05874 -11.8107 55.3954
RightForeArm  12.9141 12.8933 11.4365
RightHand  -0.786832 0.356564 -15.9321
LeftUpLeg  2.9702 12.7323 18.0839
LeftLeg  4.73783 -24.3123 0.611645
LeftFoot  -4.77264 1.17207 -19.7569
LeftToes  -3.13779e-010 -2.47553e-011 -5.36621e-011
514
root  -6.99108 38.9389 -0.158094 -5.7356 -81.4149 -0.19812
RightUpLeg  7.14182 -14.0245 -20.7898
RightLeg  -0.29959 2.17992 -0.0335393
RightFoot  4.506 -2.9337 21.1427
RightToes  7.56698e-010 0 -3.6325e-017
Spine  9.0129 -0.896455 2.89277
Spine1  -2.46301 -0.368356 -1.90246
HEad  -1.65051 -25.4564 6.18136
LeftShoulder1  2.43706 -5.64159 -20.2144
LeftArm  8.9175 14.9068 -50.6311
LeftForeArm  -5.00912 -17.0879 -9.04831
LeftHand  -0.745301 0.923657 19.3367
RightShoulder  1.16852 1.73209 15.6177
RightArm  4.22664 -11.3103 55.6585
RightForeArm  11.952 13.4131 11.2065
RightHand  -0.788884 0.334548 -16.0263
LeftUpLeg  2.86291 12.7596 18.1692
LeftLeg  4.79345 -24.4701 0.57093
LeftFoot  -4.72479 1.18001 -19.7548
LeftToes  -3.13779e-010 -2.47553e-011 -5.36621e-011
515
root  -6.95422 38.9354 -0.181401 -4.8606 -81.2302 -1.13281
RightUpLeg  7.20752 -13.9533 -20.6146
RightLeg  -0.290783 1.91415 -0.0233232
RightFoot  4.52833 -2.93081 21.1066
RightToes  7.56698e-010 0 -3.6325e-017
Spine  9.1768 -1.00269 3.07736
Spine1  -2.65339 -0.443648 -2.02049
HEad  -1.61639 -25.2367 5.98563
LeftShoulder1  2.46696 -5.77579 -20.147
LeftArm  10.1637 14.7805 -50.9415
LeftForeArm  -5.02847 -17.5687 -8.72968
LeftHand  -0.847008 0.315331 19.3724
RightShoulder  1.18472 1.81241 15.581
RightArm  4.08192 -10.8323 55.9261
RightForeArm  12.1802 13.4266 11.1723
RightHand  -0.789741 0.349391 -15.9972
LeftUpLeg  2.70649 12.7871 18.3232
LeftLeg  4.92002 -24.7117 0.515863
LeftFoot  -4.69399 1.18746 -19.7927
LeftToes  -3.13779e-010 -2.47553e-011 -5.36621e-011
